<svg width="18" height="18" viewBox="0 0 18 18" fill="none" xmlns="http://www.w3.org/2000/svg">
<path fill="none" d="M1.84049 5.95438C2.05146 5.74348 2.33756 5.625 2.63587 5.625C2.93418 5.625 3.22027 5.74348 3.43124 5.95438L8.99999 11.5231L14.5687 5.95438C14.7809 5.74946 15.0651 5.63606 15.3601 5.63863C15.655 5.64119 15.9372 5.7595 16.1458 5.96809C16.3544 6.17667 16.4727 6.45884 16.4753 6.75381C16.4778 7.04878 16.3644 7.33296 16.1595 7.54513L9.79537 13.9093C9.5844 14.1202 9.2983 14.2386 8.99999 14.2386C8.70168 14.2386 8.41559 14.1202 8.20462 13.9093L1.84049 7.54513C1.62959 7.33417 1.51111 7.04807 1.51111 6.74976C1.51111 6.45145 1.62959 6.16535 1.84049 5.95438Z" fill="#000000"/>
</svg>
