<svg width="25" height="24" viewBox="0 0 25 24" fill="none" xmlns="http://www.w3.org/2000/svg">
<path fill="none" d="M5.5 22C4.95 22 4.47933 21.8043 4.088 21.413C3.69667 21.0217 3.50067 20.5507 3.5 20V8.725C3.2 8.54167 2.95833 8.30433 2.775 8.013C2.59167 7.72167 2.5 7.384 2.5 7V4C2.5 3.45 2.696 2.97933 3.088 2.588C3.48 2.19667 3.95067 2.00067 4.5 2H20.5C21.05 2 21.521 2.196 21.913 2.588C22.305 2.98 22.5007 3.45067 22.5 4V7C22.5 7.38333 22.4083 7.721 22.225 8.013C22.0417 8.305 21.8 8.542 21.5 8.724V20C21.5 20.55 21.3043 21.021 20.913 21.413C20.5217 21.805 20.0507 22.0007 19.5 22H5.5ZM5.5 9V20H19.5V9H5.5ZM4.5 7H20.5V4H4.5V7ZM9.5 14H15.5V12H9.5V14Z" fill="#000000"/>
</svg>
