<svg width="24" height="24" viewBox="0 0 24 24" fill="none" xmlns="http://www.w3.org/2000/svg">
<path d="M5.59999 12.8002H4.79999V11.2002H5.59999C5.81216 11.2002 6.01564 11.2845 6.16567 11.4345C6.3157 11.5845 6.39999 11.788 6.39999 12.0002C6.39999 12.2124 6.3157 12.4159 6.16567 12.5659C6.01564 12.7159 5.81216 12.8002 5.59999 12.8002ZM11.2 16.0002V11.2002H12C12.2122 11.2002 12.4156 11.2845 12.5657 11.4345C12.7157 11.5845 12.8 11.788 12.8 12.0002V15.2002C12.8 15.4124 12.7157 15.6159 12.5657 15.7659C12.4156 15.9159 12.2122 16.0002 12 16.0002H11.2Z" fill="#7F7F7F" fill-opacity="0.5" style="mix-blend-mode:luminosity"/>
<path d="M5.59999 12.8002H4.79999V11.2002H5.59999C5.81216 11.2002 6.01564 11.2845 6.16567 11.4345C6.3157 11.5845 6.39999 11.788 6.39999 12.0002C6.39999 12.2124 6.3157 12.4159 6.16567 12.5659C6.01564 12.7159 5.81216 12.8002 5.59999 12.8002ZM11.2 16.0002V11.2002H12C12.2122 11.2002 12.4156 11.2845 12.5657 11.4345C12.7157 11.5845 12.8 11.788 12.8 12.0002V15.2002C12.8 15.4124 12.7157 15.6159 12.5657 15.7659C12.4156 15.9159 12.2122 16.0002 12 16.0002H11.2Z" fill="#3D3D3D" style="mix-blend-mode:overlay"/>
<path fill-rule="evenodd" clip-rule="evenodd" d="M1.59998 2.4C1.59998 1.76348 1.85283 1.15303 2.30292 0.702944C2.75301 0.252856 3.36346 0 3.99998 0L17.1312 0L22.4 5.2688V21.6C22.4 22.2365 22.1471 22.847 21.697 23.2971C21.2469 23.7471 20.6365 24 20 24H3.99998C3.36346 24 2.75301 23.7471 2.30292 23.2971C1.85283 22.847 1.59998 22.2365 1.59998 21.6V2.4ZM5.59998 9.6H3.19998V17.6H4.79998V14.4H5.59998C6.2365 14.4 6.84694 14.1471 7.29703 13.6971C7.74712 13.247 7.99998 12.6365 7.99998 12C7.99998 11.3635 7.74712 10.753 7.29703 10.3029C6.84694 9.85286 6.2365 9.6 5.59998 9.6ZM12 9.6H9.59998V17.6H12C12.6365 17.6 13.2469 17.3471 13.697 16.8971C14.1471 16.447 14.4 15.8365 14.4 15.2V12C14.4 11.3635 14.1471 10.753 13.697 10.3029C13.2469 9.85286 12.6365 9.6 12 9.6ZM16 17.6V9.6H20.8V11.2H17.6V12.8H19.2V14.4H17.6V17.6H16Z" fill="#007AFF"/>
</svg>
